<svg width="40" height="40" viewBox="0 0 40 40" fill="none" xmlns="http://www.w3.org/2000/svg">
<circle cx="20" cy="20" r="20" fill="#FFC800"/>
<path d="M25.7076 16.4071L19.9836 22.131L14.2596 16.4071C14.0081 16.1642 13.6713 16.0298 13.3217 16.0328C12.9722 16.0359 12.6377 16.1761 12.3905 16.4233C12.1433 16.6705 12.0031 17.0049 12.0001 17.3545C11.997 17.7041 12.1314 18.0409 12.3743 18.2924L19.0409 24.959C19.291 25.209 19.6301 25.3494 19.9836 25.3494C20.3372 25.3494 20.6762 25.209 20.9263 24.959L27.5929 18.2924C27.7203 18.1694 27.8219 18.0223 27.8918 17.8596C27.9616 17.6969 27.9984 17.522 27.9999 17.3449C28.0015 17.1679 27.9678 16.9923 27.9007 16.8284C27.8337 16.6646 27.7347 16.5157 27.6095 16.3905C27.4843 16.2653 27.3354 16.1663 27.1716 16.0993C27.0077 16.0322 26.8321 15.9985 26.6551 16.0001C26.478 16.0016 26.3031 16.0384 26.1404 16.1082C25.9777 16.1781 25.8306 16.2797 25.7076 16.4071Z" fill="black"/>
</svg>
