<svg width="14" height="24" viewBox="0 0 14 24" fill="none" xmlns="http://www.w3.org/2000/svg">
<path d="M12.7022 7.75609C12.5629 7.57033 12.3822 7.41956 12.1745 7.31571C11.9668 7.21187 11.7378 7.15781 11.5056 7.15781H9.22467V5.66211H10.7204C11.1171 5.66211 11.4975 5.50453 11.778 5.22403C12.0585 4.94353 12.2161 4.56309 12.2161 4.16641V1.92286C12.2161 1.72644 12.1774 1.53195 12.1022 1.35048C12.0271 1.16902 11.9169 1.00413 11.778 0.865242C11.6391 0.726354 11.4742 0.616181 11.2928 0.541015C11.1113 0.46585 10.9168 0.427162 10.7204 0.427162H8.62639C7.72205 0.420013 6.83191 0.652223 6.04631 1.10023C5.1115 1.66111 3.98972 2.82028 3.98972 5.13861V7.12042H2.49402C2.29742 7.11489 2.10196 7.15215 1.92118 7.22963C1.7404 7.3071 1.57862 7.42294 1.44703 7.56913C1.17812 7.85393 1.0191 8.22497 0.998322 8.61612V10.8597C0.998322 11.2563 1.1559 11.6368 1.4364 11.9173C1.7169 12.1978 2.09734 12.3554 2.49402 12.3554H3.98972V22.0774C3.98972 22.2738 4.02841 22.4683 4.10357 22.6498C4.17874 22.8313 4.28891 22.9961 4.4278 23.135C4.56669 23.2739 4.73158 23.3841 4.91304 23.4593C5.09451 23.5344 5.289 23.5731 5.48542 23.5731H7.72897C7.92539 23.5731 8.11988 23.5344 8.30135 23.4593C8.48282 23.3841 8.6477 23.2739 8.78659 23.135C8.92548 22.9961 9.03565 22.8313 9.11082 22.6498C9.18598 22.4683 9.22467 22.2738 9.22467 22.0774V12.3554H10.9821C11.3041 12.3517 11.6164 12.2441 11.8724 12.0488C12.1284 11.8534 12.3145 11.5806 12.403 11.271L12.9265 9.02743C13.0008 8.81399 13.0191 8.5851 12.9798 8.36256C12.9406 8.14001 12.845 7.93123 12.7022 7.75609ZM10.9821 10.8597H7.72897V22.0774H5.48542V10.8597H2.49402V8.61612H5.48542V5.13861C5.48542 2.10982 8.02811 1.92286 8.62639 1.92286H10.7204V4.16641H8.77596C7.69158 4.16641 7.72897 5.06383 7.72897 5.06383V8.61612H11.5056L10.9821 10.8597Z" fill="black" stroke="black" stroke-width="0.4"/>
</svg>
