<svg width="40" height="40" viewBox="0 0 40 40" fill="none" xmlns="http://www.w3.org/2000/svg">
<circle r="20" transform="matrix(1 0 0 -1 20 20)" fill="#FFC800"/>
<path d="M25.7076 23.5929L19.9836 17.869L14.2596 23.5929C14.0081 23.8358 13.6713 23.9702 13.3217 23.9672C12.9722 23.9641 12.6377 23.8239 12.3905 23.5767C12.1433 23.3295 12.0031 22.9951 12.0001 22.6455C11.997 22.2959 12.1314 21.9591 12.3743 21.7076L19.0409 15.041C19.291 14.791 19.6301 14.6506 19.9836 14.6506C20.3372 14.6506 20.6762 14.791 20.9263 15.041L27.5929 21.7076C27.7203 21.8306 27.8219 21.9777 27.8918 22.1404C27.9616 22.3031 27.9984 22.478 27.9999 22.6551C28.0015 22.8321 27.9678 23.0077 27.9007 23.1716C27.8337 23.3354 27.7347 23.4843 27.6095 23.6095C27.4843 23.7347 27.3354 23.8337 27.1716 23.9007C27.0077 23.9678 26.8321 24.0015 26.6551 23.9999C26.478 23.9984 26.3031 23.9616 26.1404 23.8918C25.9777 23.8219 25.8306 23.7203 25.7076 23.5929Z" fill="black"/>
</svg>
